<?xml version="1.0" encoding="utf-8"?>
<!-- created with bpmn-js / http://bpmn.io -->
<!DOCTYPE svg PUBLIC "-//W3C//DTD SVG 1.1//EN" "http://www.w3.org/Graphics/SVG/1.1/DTD/svg11.dtd">
<svg xmlns="http://www.w3.org/2000/svg" xmlns:xlink="http://www.w3.org/1999/xlink" width="730" height="450" viewBox="185 95 730 450" version="1.1"><defs><pattern id="djs-grid-pattern-667377" width="10" height="10" patternUnits="userSpaceOnUse"><circle cx="0.5" cy="0.5" r="0.5" style="fill: rgb(204, 204, 204);"/></pattern></defs><g class="djs-group"><g class="djs-element djs-shape" data-element-id="Participant_0s6sfgk" transform="matrix(1, 0, 0, 1, 190, 100)" style="display: block;"><g class="djs-visual"><rect x="0" y="0" width="700" height="440" rx="0" ry="0" style="stroke-linecap: round; stroke-linejoin: round; stroke: rgb(34, 36, 42); stroke-width: 1.5px; fill: white; fill-opacity: 0.95;"/><path style="fill: none; stroke-linecap: round; stroke-linejoin: round; stroke: rgb(34, 36, 42); stroke-width: 1.5px;" d="M30,0L30,440"/><text style="font-family: Arial, sans-serif; font-size: 12px; font-weight: normal; fill: rgb(34, 36, 42);" lineHeight="1.2" class="djs-label" transform="matrix(-1.83697e-16, -1, 1, -1.83697e-16, 0, 440)"><tspan x="159.2416648864746" y="18.6">Leave request process</tspan></text></g><rect x="-5" y="-5" rx="4" width="710" height="450" style="fill: none;" class="djs-outline"/><rect style="fill: none; stroke-opacity: 0; stroke: white; stroke-width: 15px;" class="djs-hit djs-hit-no-move" x="0" y="0" width="700" height="440"/><rect style="fill: none; stroke-opacity: 0; stroke: white; stroke-width: 15px;" class="djs-hit djs-hit-click-stroke" x="0" y="0" width="700" height="440"/><rect style="fill: none; stroke-opacity: 0; stroke: white; stroke-width: 15px;" class="djs-hit djs-hit-all" x="0" y="0" width="30" height="440"/></g><g class="djs-children"><g class="djs-group"><g class="djs-element djs-shape" data-element-id="Lane_18hejjc" transform="matrix(1, 0, 0, 1, 220, 400)" style="display: block;"><g class="djs-visual"><rect x="0" y="0" width="670" height="140" rx="0" ry="0" style="stroke-linecap: round; stroke-linejoin: round; stroke: rgb(34, 36, 42); stroke-width: 1.5px; fill: white; fill-opacity: 0.25;"/><text style="font-family: Arial, sans-serif; font-size: 12px; font-weight: normal; fill: rgb(34, 36, 42);" lineHeight="1.2" class="djs-label" transform="matrix(-1.83697e-16, -1, 1, -1.83697e-16, 0, 140)"><tspan x="41.29999923706055" y="18.6">Supervisor</tspan></text></g><rect x="-5" y="-5" rx="4" width="680" height="150" style="fill: none;" class="djs-outline"/><rect style="fill: none; stroke-opacity: 0; stroke: white; stroke-width: 15px;" class="djs-hit djs-hit-no-move" x="0" y="0" width="670" height="140"/><rect style="fill: none; stroke-opacity: 0; stroke: white; stroke-width: 15px;" class="djs-hit djs-hit-click-stroke" x="0" y="0" width="670" height="140"/><rect style="fill: none; stroke-opacity: 0; stroke: white; stroke-width: 15px;" class="djs-hit djs-hit-all" x="0" y="0" width="30" height="140"/></g></g><g class="djs-group"><g class="djs-element djs-shape" data-element-id="Lane_0r00vk2" transform="matrix(1, 0, 0, 1, 220, 250)" style="display: block;"><g class="djs-visual"><rect x="0" y="0" width="670" height="150" rx="0" ry="0" style="stroke-linecap: round; stroke-linejoin: round; stroke: rgb(34, 36, 42); stroke-width: 1.5px; fill: white; fill-opacity: 0.25;"/><text style="font-family: Arial, sans-serif; font-size: 12px; font-weight: normal; fill: rgb(34, 36, 42);" lineHeight="1.2" class="djs-label" transform="matrix(-1.83697e-16, -1, 1, -1.83697e-16, 0, 150)"><tspan x="28.275001525878906" y="18.6">Human Resource</tspan></text></g><rect x="-5" y="-5" rx="4" width="680" height="160" style="fill: none;" class="djs-outline"/><rect style="fill: none; stroke-opacity: 0; stroke: white; stroke-width: 15px;" class="djs-hit djs-hit-no-move" x="0" y="0" width="670" height="150"/><rect style="fill: none; stroke-opacity: 0; stroke: white; stroke-width: 15px;" class="djs-hit djs-hit-click-stroke" x="0" y="0" width="670" height="150"/><rect style="fill: none; stroke-opacity: 0; stroke: white; stroke-width: 15px;" class="djs-hit djs-hit-all" x="0" y="0" width="30" height="150"/></g></g><g class="djs-group"><g class="djs-element djs-shape" data-element-id="Lane_1lkzfui" transform="matrix(1, 0, 0, 1, 220, 100)" style="display: block;"><g class="djs-visual"><rect x="0" y="0" width="670" height="150" rx="0" ry="0" style="stroke-linecap: round; stroke-linejoin: round; stroke: rgb(34, 36, 42); stroke-width: 1.5px; fill: white; fill-opacity: 0.25;"/><text style="font-family: Arial, sans-serif; font-size: 12px; font-weight: normal; fill: rgb(34, 36, 42);" lineHeight="1.2" class="djs-label" transform="matrix(-1.83697e-16, -1, 1, -1.83697e-16, 0, 150)"><tspan x="48.29999923706055" y="18.6">Employee</tspan></text></g><rect x="-5" y="-5" rx="4" width="680" height="160" style="fill: none;" class="djs-outline"/><rect style="fill: none; stroke-opacity: 0; stroke: white; stroke-width: 15px;" class="djs-hit djs-hit-no-move" x="0" y="0" width="670" height="150"/><rect style="fill: none; stroke-opacity: 0; stroke: white; stroke-width: 15px;" class="djs-hit djs-hit-click-stroke" x="0" y="0" width="670" height="150"/><rect style="fill: none; stroke-opacity: 0; stroke: white; stroke-width: 15px;" class="djs-hit djs-hit-all" x="0" y="0" width="30" height="150"/></g></g><g class="djs-group"><g class="djs-element djs-shape" data-element-id="Event_1k5qhdg" transform="matrix(1, 0, 0, 1, 292, 152)" style="display: block;"><g class="djs-visual"><circle cx="18" cy="18" r="18" style="stroke-linecap: round; stroke-linejoin: round; stroke: rgb(32, 80, 34); stroke-width: 2px; fill: rgb(200, 230, 201); fill-opacity: 0.95;"/></g><rect style="fill: none; stroke-opacity: 0; stroke: white; stroke-width: 15px;" class="djs-hit djs-hit-all" x="0" y="0" width="36" height="36"/><circle cx="18" cy="18" r="23" style="fill: none;" class="djs-outline"/></g></g><g class="djs-group"><g class="djs-element djs-shape" data-element-id="Activity_0y4lnzo" transform="matrix(1, 0, 0, 1, 460, 130)" style="display: block;"><g class="djs-visual"><rect x="0" y="0" width="100" height="80" rx="10" ry="10" style="stroke-linecap: round; stroke-linejoin: round; stroke: rgb(34, 36, 42); stroke-width: 2px; fill: white; fill-opacity: 0.95;"/><text style="font-family: Arial, sans-serif; font-size: 12px; font-weight: normal; fill: rgb(34, 36, 42);" lineHeight="1.2" class="djs-label"><tspan x="20.633333206176758" y="29.200000000000003">Fill out the </tspan><tspan x="28.299999237060547" y="43.6">request </tspan><tspan x="23.625" y="58">document</tspan></text><path style="fill: white; stroke-linecap: round; stroke-linejoin: round; stroke: rgb(34, 36, 42); stroke-width: 0.5px;" d="m 15,12 c 0.909,-0.845 1.594,-2.049 1.594,-3.385 0,-2.554 -1.805,-4.62199999 -4.357,-4.62199999 -2.55199998,0 -4.28799998,2.06799999 -4.28799998,4.62199999 0,1.348 0.974,2.562 1.89599998,3.405 -0.52899998,0.187 -5.669,2.097 -5.794,4.7560005 v 6.718 h 17 v -6.718 c 0,-2.2980005 -5.5279996,-4.5950005 -6.0509996,-4.7760005 zm -8,6 l 0,5.5 m 11,0 l 0,-5"/><path style="fill: white; stroke-linecap: round; stroke-linejoin: round; stroke: rgb(34, 36, 42); stroke-width: 0.5px;" d="m 15,12 m 2.162,1.009 c 0,2.4470005 -2.158,4.4310005 -4.821,4.4310005 -2.66499998,0 -4.822,-1.981 -4.822,-4.4310005 "/><path style="fill: rgb(34, 36, 42); stroke-linecap: round; stroke-linejoin: round; stroke: rgb(34, 36, 42); stroke-width: 0.5px;" d="m 15,12 m -6.9,-3.80 c 0,0 2.25099998,-2.358 4.27399998,-1.177 2.024,1.181 4.221,1.537 4.124,0.965 -0.098,-0.57 -0.117,-3.79099999 -4.191,-4.13599999 -3.57499998,0.001 -4.20799998,3.36699999 -4.20699998,4.34799999 z"/></g><rect style="fill: none; stroke-opacity: 0; stroke: white; stroke-width: 15px;" class="djs-hit djs-hit-all" x="0" y="0" width="100" height="80"/><rect x="-5" y="-5" rx="14" width="110" height="90" style="fill: none;" class="djs-outline"/></g></g><g class="djs-group"><g class="djs-element djs-shape" data-element-id="Activity_1vw285c" transform="matrix(1, 0, 0, 1, 353, 280)" style="display: block;"><g class="djs-visual"><rect x="0" y="0" width="100" height="80" rx="10" ry="10" style="stroke-linecap: round; stroke-linejoin: round; stroke: rgb(34, 36, 42); stroke-width: 2px; fill: white; fill-opacity: 0.95;"/><text style="font-family: Arial, sans-serif; font-size: 12px; font-weight: normal; fill: rgb(34, 36, 42);" lineHeight="1.2" class="djs-label"><tspan x="28.641666412353516" y="22">Get the </tspan><tspan x="26.29166603088379" y="36.4">required </tspan><tspan x="9.950000762939453" y="50.8">document from</tspan><tspan x="41.333333015441895" y="65.19999999999999">HR</tspan></text><path style="fill: white; stroke-linecap: round; stroke-linejoin: round; stroke: rgb(34, 36, 42); stroke-width: 0.5px;" d="m 15,12 c 0.909,-0.845 1.594,-2.049 1.594,-3.385 0,-2.554 -1.805,-4.62199999 -4.357,-4.62199999 -2.55199998,0 -4.28799998,2.06799999 -4.28799998,4.62199999 0,1.348 0.974,2.562 1.89599998,3.405 -0.52899998,0.187 -5.669,2.097 -5.794,4.7560005 v 6.718 h 17 v -6.718 c 0,-2.2980005 -5.5279996,-4.5950005 -6.0509996,-4.7760005 zm -8,6 l 0,5.5 m 11,0 l 0,-5"/><path style="fill: white; stroke-linecap: round; stroke-linejoin: round; stroke: rgb(34, 36, 42); stroke-width: 0.5px;" d="m 15,12 m 2.162,1.009 c 0,2.4470005 -2.158,4.4310005 -4.821,4.4310005 -2.66499998,0 -4.822,-1.981 -4.822,-4.4310005 "/><path style="fill: rgb(34, 36, 42); stroke-linecap: round; stroke-linejoin: round; stroke: rgb(34, 36, 42); stroke-width: 0.5px;" d="m 15,12 m -6.9,-3.80 c 0,0 2.25099998,-2.358 4.27399998,-1.177 2.024,1.181 4.221,1.537 4.124,0.965 -0.098,-0.57 -0.117,-3.79099999 -4.191,-4.13599999 -3.57499998,0.001 -4.20799998,3.36699999 -4.20699998,4.34799999 z"/></g><rect style="fill: none; stroke-opacity: 0; stroke: white; stroke-width: 15px;" class="djs-hit djs-hit-all" x="0" y="0" width="100" height="80"/><rect x="-5" y="-5" rx="14" width="110" height="90" style="fill: none;" class="djs-outline"/></g></g><g class="djs-group"><g class="djs-element djs-shape" data-element-id="Activity_0h133fx" transform="matrix(1, 0, 0, 1, 600, 280)" style="display: block;"><g class="djs-visual"><rect x="0" y="0" width="100" height="80" rx="10" ry="10" style="stroke-linecap: round; stroke-linejoin: round; stroke: rgb(34, 36, 42); stroke-width: 2px; fill: white; fill-opacity: 0.95;"/><text style="font-family: Arial, sans-serif; font-size: 12px; font-weight: normal; fill: rgb(34, 36, 42);" lineHeight="1.2" class="djs-label"><tspan x="12.61666488647461" y="29.200000000000003">Acknowledge </tspan><tspan x="23.95833396911621" y="43.6">the leave </tspan><tspan x="29.96666717529297" y="58">request</tspan></text></g><rect style="fill: none; stroke-opacity: 0; stroke: white; stroke-width: 15px;" class="djs-hit djs-hit-all" x="0" y="0" width="100" height="80"/><rect x="-5" y="-5" rx="14" width="110" height="90" style="fill: none;" class="djs-outline"/></g></g><g class="djs-group"><g class="djs-element djs-shape" data-element-id="Event_0qcoi3h" transform="matrix(1, 0, 0, 1, 782, 302)" style="display: block;"><g class="djs-visual"><circle cx="18" cy="18" r="18" style="stroke-linecap: round; stroke-linejoin: round; stroke: rgb(32, 80, 34); stroke-width: 4px; fill: rgb(200, 230, 201); fill-opacity: 0.95;"/></g><rect style="fill: none; stroke-opacity: 0; stroke: white; stroke-width: 15px;" class="djs-hit djs-hit-all" x="0" y="0" width="36" height="36"/><circle cx="18" cy="18" r="24" style="fill: none;" class="djs-outline"/></g></g><g class="djs-group"><g class="djs-element djs-shape" data-element-id="Activity_0n3788e" transform="matrix(1, 0, 0, 1, 470, 430)" style="display: block;"><g class="djs-visual"><rect x="0" y="0" width="100" height="80" rx="10" ry="10" style="stroke-linecap: round; stroke-linejoin: round; stroke: rgb(34, 36, 42); stroke-width: 2px; fill: white; fill-opacity: 0.95;"/><text style="font-family: Arial, sans-serif; font-size: 12px; font-weight: normal; fill: rgb(34, 36, 42);" lineHeight="1.2" class="djs-label"><tspan x="18.633333206176758" y="29.200000000000003">Review the </tspan><tspan x="12.275001525878906" y="43.6">leave request </tspan><tspan x="23.625" y="58">document</tspan></text></g><rect style="fill: none; stroke-opacity: 0; stroke: white; stroke-width: 15px;" class="djs-hit djs-hit-all" x="0" y="0" width="100" height="80"/><rect x="-5" y="-5" rx="14" width="110" height="90" style="fill: none;" class="djs-outline"/></g></g><g class="djs-group"><g class="djs-element djs-shape" data-element-id="Gateway_0p20e8y" transform="matrix(1, 0, 0, 1, 625, 445)" style="display: block;"><g class="djs-visual"><polygon style="stroke-linecap: round; stroke-linejoin: round; stroke: rgb(107, 60, 0); stroke-width: 2px; fill: rgb(255, 224, 178); fill-opacity: 0.95;" points="25,0 50,25 25,50 0,25"/><path style="fill: rgb(107, 60, 0); stroke-linecap: round; stroke-linejoin: round; stroke: rgb(107, 60, 0); stroke-width: 1px;" d="m 16,15 7.42857142857143,9.714285714285715 -7.42857142857143,9.714285714285715 3.428571428571429,0 5.714285714285715,-7.464228571428572 5.714285714285715,7.464228571428572 3.428571428571429,0 -7.42857142857143,-9.714285714285715 7.42857142857143,-9.714285714285715 -3.428571428571429,0 -5.714285714285715,7.464228571428572 -5.714285714285715,-7.464228571428572 -3.428571428571429,0 z"/></g><rect style="fill: none; stroke-opacity: 0; stroke: white; stroke-width: 15px;" class="djs-hit djs-hit-all" x="0" y="0" width="50" height="50"/><rect style="transform-box: fill-box; transform: rotate(45deg); transform-origin: center center 0px; fill: none;" x="2" y="2" rx="4" width="46" height="46" class="djs-outline"/></g></g><g class="djs-group"><g class="djs-element djs-shape" data-element-id="Event_1tz5o57" transform="matrix(1, 0, 0, 1, 782, 452)" style="display: block;"><g class="djs-visual"><circle cx="18" cy="18" r="18" style="stroke-linecap: round; stroke-linejoin: round; stroke: rgb(131, 19, 17); stroke-width: 4px; fill: rgb(255, 205, 210); fill-opacity: 0.95;"/></g><rect style="fill: none; stroke-opacity: 0; stroke: white; stroke-width: 15px;" class="djs-hit djs-hit-all" x="0" y="0" width="36" height="36"/><circle cx="18" cy="18" r="24" style="fill: none;" class="djs-outline"/></g></g><g class="djs-group"><g class="djs-element djs-shape" data-element-id="DataObjectReference_174s79u" transform="matrix(1, 0, 0, 1, 632, 175)" style="display: block;"><g class="djs-visual"><path style="fill: rgb(255, 224, 178); stroke-linecap: round; stroke-linejoin: round; stroke: rgb(107, 60, 0); stroke-width: 2px; fill-opacity: 0.95;" d="m 0,0 28.23529411764706,0 7.058823529411765,8.196721311475411 0,40.98360655737705 -35.294117647058826,0 0,-49.18032786885246 28.23529411764706,0 0,8.196721311475411 7.058823529411765,0"/></g><rect style="fill: none; stroke-opacity: 0; stroke: white; stroke-width: 15px;" class="djs-hit djs-hit-all" x="0" y="0" width="36" height="50"/><path d="M44.7648 11.3263L36.9892 2.64074C36.0451 1.58628 34.5651 0.988708 33.1904 0.988708H5.98667C3.22688 0.988708 0.989624 3.34892 0.989624 6.26039V55.0235C0.989624 57.9349 3.22688 60.2952 5.98667 60.2952H40.966C43.7257 60.2952 45.963 57.9349 45.963 55.0235V14.9459C45.963 13.5998 45.6407 12.3048 44.7648 11.3263Z" style="stroke-width: 2px; fill: none;" transform="translate(-6, -6)" class="djs-outline"/></g></g><g class="djs-group"><g class="djs-element djs-connection" data-element-id="Association_0b0ibjl" style="display: block;"><g class="djs-visual"><path style="fill: none; stroke-linecap: round; stroke-linejoin: round; stroke: rgb(34, 36, 42); stroke-width: 2px; stroke-dasharray: 0px, 5px;" data-corner-radius="5" d="M560,162L700,143"/></g><path d="M560,162L700,143" style="fill: none; stroke-opacity: 0; stroke: white; stroke-width: 15px;" class="djs-hit djs-hit-stroke"/><rect x="555" y="138" rx="4" width="150" height="29" style="fill: none;" class="djs-outline"/></g></g><g class="djs-group"><g class="djs-element djs-connection" data-element-id="Flow_1s7p9qk" style="display: block;"><g class="djs-visual"><defs><marker id="marker-0pspfay2lippje6fxntrw0sjd" viewBox="0 0 20 20" refX="11" refY="10" markerWidth="10" markerHeight="10" orient="auto"><path d="M 1 5 L 11 10 L 1 15 Z" style="stroke-linecap: round; stroke-linejoin: round; stroke: rgb(34, 36, 42); stroke-width: 1px; fill: rgb(34, 36, 42);"/></marker></defs><path style="fill: none; stroke-linecap: round; stroke-linejoin: round; stroke: rgb(34, 36, 42); stroke-width: 2px; marker-end: url('#marker-0pspfay2lippje6fxntrw0sjd');" data-corner-radius="5" d="M520,210L520,430"/></g><path d="M520,210L520,430" style="fill: none; stroke-opacity: 0; stroke: white; stroke-width: 15px;" class="djs-hit djs-hit-stroke"/><rect x="515" y="205" rx="4" width="10" height="230" style="fill: none;" class="djs-outline"/></g></g><g class="djs-group"><g class="djs-element djs-connection" data-element-id="Flow_0e725gq" style="display: block;"><g class="djs-visual"><defs><marker id="marker-c41a2pcilheg74d9bmw97zu8c" viewBox="0 0 20 20" refX="11" refY="10" markerWidth="10" markerHeight="10" orient="auto"><path d="M 1 5 L 11 10 L 1 15 Z" style="stroke-linecap: round; stroke-linejoin: round; stroke: rgb(34, 36, 42); stroke-width: 1px; fill: rgb(34, 36, 42);"/></marker></defs><path style="fill: none; stroke-linecap: round; stroke-linejoin: round; stroke: rgb(34, 36, 42); stroke-width: 2px; marker-end: url('#marker-c41a2pcilheg74d9bmw97zu8c');" data-corner-radius="5" d="M310,188L310,315C310,317.5,312.5,320,315,320L353,320"/></g><path d="M310,188L310,320L353,320" style="fill: none; stroke-opacity: 0; stroke: white; stroke-width: 15px;" class="djs-hit djs-hit-stroke"/><rect x="305" y="183" rx="4" width="53" height="142" style="fill: none;" class="djs-outline"/></g></g><g class="djs-group"><g class="djs-element djs-connection" data-element-id="Flow_0wiqblp" style="display: block;"><g class="djs-visual"><defs><marker id="marker-6sgjrsvsdh0pp99z58bjrlryn" viewBox="0 0 20 20" refX="11" refY="10" markerWidth="10" markerHeight="10" orient="auto"><path d="M 1 5 L 11 10 L 1 15 Z" style="stroke-linecap: round; stroke-linejoin: round; stroke: rgb(34, 36, 42); stroke-width: 1px; fill: rgb(34, 36, 42);"/></marker></defs><path style="fill: none; stroke-linecap: round; stroke-linejoin: round; stroke: rgb(34, 36, 42); stroke-width: 2px; marker-end: url('#marker-6sgjrsvsdh0pp99z58bjrlryn');" data-corner-radius="5" d="M453,320L495,320C497.5,320,500,317.5,500,315L500,210"/></g><path d="M453,320L500,320L500,210" style="fill: none; stroke-opacity: 0; stroke: white; stroke-width: 15px;" class="djs-hit djs-hit-stroke"/><rect x="448" y="205" rx="4" width="57" height="120" style="fill: none;" class="djs-outline"/></g></g><g class="djs-group"><g class="djs-element djs-connection" data-element-id="Flow_0hm9oq5" style="display: block;"><g class="djs-visual"><defs><marker id="marker-5e7dx10ycz24ma4rmyzq5sxl9" viewBox="0 0 20 20" refX="11" refY="10" markerWidth="10" markerHeight="10" orient="auto"><path d="M 1 5 L 11 10 L 1 15 Z" style="stroke-linecap: round; stroke-linejoin: round; stroke: rgb(34, 36, 42); stroke-width: 1px; fill: rgb(34, 36, 42);"/></marker><marker id="marker-95lkx0eakqkcmqgxlbq0r0a0e" viewBox="0 0 20 20" refX="0" refY="10" markerWidth="10" markerHeight="10" orient="auto"><path d="M 6 4 L 10 16" style="stroke-linecap: round; stroke-linejoin: round; stroke: rgb(34, 36, 42); stroke-width: 2px; fill: none;"/></marker></defs><path style="fill: none; stroke-linecap: round; stroke-linejoin: round; stroke: rgb(34, 36, 42); stroke-width: 2px; marker-end: url('#marker-5e7dx10ycz24ma4rmyzq5sxl9'); marker-start: url('#marker-95lkx0eakqkcmqgxlbq0r0a0e');" data-corner-radius="5" d="M650,445L650,360"/></g><path d="M650,445L650,360" style="fill: none; stroke-opacity: 0; stroke: white; stroke-width: 15px;" class="djs-hit djs-hit-stroke"/><rect x="645" y="355" rx="4" width="10" height="95" style="fill: none;" class="djs-outline"/></g></g><g class="djs-group"><g class="djs-element djs-connection" data-element-id="Flow_1yfuwur" style="display: block;"><g class="djs-visual"><defs><marker id="marker-a7n6a5uwbt6tk2cdrqth6zdnd" viewBox="0 0 20 20" refX="11" refY="10" markerWidth="10" markerHeight="10" orient="auto"><path d="M 1 5 L 11 10 L 1 15 Z" style="stroke-linecap: round; stroke-linejoin: round; stroke: rgb(34, 36, 42); stroke-width: 1px; fill: rgb(34, 36, 42);"/></marker></defs><path style="fill: none; stroke-linecap: round; stroke-linejoin: round; stroke: rgb(34, 36, 42); stroke-width: 2px; marker-end: url('#marker-a7n6a5uwbt6tk2cdrqth6zdnd');" data-corner-radius="5" d="M700,320L782,320"/></g><path d="M700,320L782,320" style="fill: none; stroke-opacity: 0; stroke: white; stroke-width: 15px;" class="djs-hit djs-hit-stroke"/><rect x="695" y="315" rx="4" width="92" height="10" style="fill: none;" class="djs-outline"/></g></g><g class="djs-group"><g class="djs-element djs-connection" data-element-id="Flow_095kk0s" style="display: block;"><g class="djs-visual"><defs><marker id="marker-4jkamp92t4hg6w01wnscu5xwa" viewBox="0 0 20 20" refX="11" refY="10" markerWidth="10" markerHeight="10" orient="auto"><path d="M 1 5 L 11 10 L 1 15 Z" style="stroke-linecap: round; stroke-linejoin: round; stroke: rgb(34, 36, 42); stroke-width: 1px; fill: rgb(34, 36, 42);"/></marker></defs><path style="fill: none; stroke-linecap: round; stroke-linejoin: round; stroke: rgb(34, 36, 42); stroke-width: 2px; marker-end: url('#marker-4jkamp92t4hg6w01wnscu5xwa');" data-corner-radius="5" d="M570,470L625,470"/></g><path d="M570,470L625,470" style="fill: none; stroke-opacity: 0; stroke: white; stroke-width: 15px;" class="djs-hit djs-hit-stroke"/><rect x="565" y="465" rx="4" width="65" height="10" style="fill: none;" class="djs-outline"/></g></g><g class="djs-group"><g class="djs-element djs-connection" data-element-id="Flow_0ynzzem" style="display: block;"><g class="djs-visual"><defs><marker id="marker-cyqsb1lzqnl4kuowxvtny5ldk" viewBox="0 0 20 20" refX="11" refY="10" markerWidth="10" markerHeight="10" orient="auto"><path d="M 1 5 L 11 10 L 1 15 Z" style="stroke-linecap: round; stroke-linejoin: round; stroke: rgb(34, 36, 42); stroke-width: 1px; fill: rgb(34, 36, 42);"/></marker></defs><path style="fill: none; stroke-linecap: round; stroke-linejoin: round; stroke: rgb(34, 36, 42); stroke-width: 2px; marker-end: url('#marker-cyqsb1lzqnl4kuowxvtny5ldk');" data-corner-radius="5" d="M675,470L782,470"/></g><path d="M675,470L782,470" style="fill: none; stroke-opacity: 0; stroke: white; stroke-width: 15px;" class="djs-hit djs-hit-stroke"/><rect x="670" y="465" rx="4" width="117" height="10" style="fill: none;" class="djs-outline"/></g></g></g></g><g class="djs-group"><g class="djs-element djs-shape" data-element-id="TextAnnotation_1d9xsr2" transform="matrix(1, 0, 0, 1, 700, 120)" style="display: block;"><g class="djs-visual"><rect x="0" y="0" width="210" height="55" rx="0" ry="0" style="stroke-linecap: round; stroke-linejoin: round; stroke: none; stroke-width: 2px; fill: none;"/><path style="fill: none; stroke-linecap: round; stroke-linejoin: round; stroke: rgb(34, 36, 42); stroke-width: 2px;" d="m 0, 0 m 10,0 l -10,0 l 0,55 l 10,0"/><text style="font-family: Arial, sans-serif; font-size: 12px; font-weight: normal; fill: rgb(34, 36, 42);" lineHeight="1.2" class="djs-label"><tspan x="7" y="17.799999999999997">Type of leave request</tspan><tspan x="7" y="32.199999999999996">leave request date (start-end)</tspan><tspan x="7" y="46.599999999999994">additional documents</tspan></text></g><rect style="fill: none; stroke-opacity: 0; stroke: white; stroke-width: 15px;" class="djs-hit djs-hit-all" x="0" y="0" width="210" height="55"/><rect x="-5" y="-5" rx="4" width="220" height="65" style="fill: none;" class="djs-outline"/></g></g><g class="djs-group"><g class="djs-element djs-connection" data-element-id="DataOutputAssociation_14s0l9o" style="display: block;"><g class="djs-visual"><defs><marker id="marker-ecfizoybqsc2zbx3ywbnrqinh" viewBox="0 0 20 20" refX="11" refY="10" markerWidth="10" markerHeight="10" orient="auto"><path d="M 1 5 L 11 10 L 1 15" style="fill: none; stroke-linecap: round; stroke-linejoin: round; stroke: rgb(34, 36, 42); stroke-width: 1.5px; stroke-dasharray: 10000px, 1px;"/></marker></defs><path style="fill: none; stroke-linecap: round; stroke-linejoin: round; stroke: rgb(34, 36, 42); stroke-width: 2px; marker-end: url('#marker-ecfizoybqsc2zbx3ywbnrqinh'); stroke-dasharray: 0px, 5px;" data-corner-radius="5" d="M560,179L630,190"/></g><path d="M560,179L630,190" style="fill: none; stroke-opacity: 0; stroke: white; stroke-width: 15px;" class="djs-hit djs-hit-stroke"/><rect x="555" y="174" rx="4" width="80" height="21" style="fill: none;" class="djs-outline"/></g></g><g class="djs-group"><g class="djs-element djs-shape" data-element-id="Event_1k5qhdg_label" transform="matrix(1, 0, 0, 1, 277, 120.5)" style="display: block;"><g class="djs-visual"><text style="font-family: Arial, sans-serif; font-size: 11px; font-weight: normal; fill: rgb(32, 80, 34);" lineHeight="1.2" class="djs-label"><tspan x="0" y="9.899999999999999">Want to create </tspan><tspan x="1.2999992370605469" y="23.099999999999998">leave requests</tspan></text></g><rect style="fill: none; stroke-opacity: 0; stroke: white; stroke-width: 15px;" class="djs-hit djs-hit-all" x="0" y="0" width="75" height="27"/><rect x="-5" y="-5" rx="4" width="85" height="37" style="fill: none;" class="djs-outline"/></g></g><g class="djs-group"><g class="djs-element djs-connection" data-element-id="DataOutputAssociation_10kkbzu" style="display: block;"><g class="djs-visual"><defs><marker id="marker-efzhjskh57ztsrpdyqu0nmusr" viewBox="0 0 20 20" refX="11" refY="10" markerWidth="10" markerHeight="10" orient="auto"><path d="M 1 5 L 11 10 L 1 15" style="fill: none; stroke-linecap: round; stroke-linejoin: round; stroke: rgb(34, 36, 42); stroke-width: 1.5px; stroke-dasharray: 10000px, 1px;"/></marker></defs><path style="fill: none; stroke-linecap: round; stroke-linejoin: round; stroke: rgb(34, 36, 42); stroke-width: 2px; marker-end: url('#marker-efzhjskh57ztsrpdyqu0nmusr'); stroke-dasharray: 0px, 5px;" data-corner-radius="5" d="M540,430L540,285C540,282.5,542.0313456265742,278.5427303113707,544.0626912531484,277.0854606227413L632,214"/></g><path d="M540,430L540,280L632,214" style="fill: none; stroke-opacity: 0; stroke: white; stroke-width: 15px;" class="djs-hit djs-hit-stroke"/><rect x="535" y="209" rx="4" width="102" height="226" style="fill: none;" class="djs-outline"/></g></g><g class="djs-group"><g class="djs-element djs-connection" data-element-id="DataOutputAssociation_0fmt1ja" style="display: block;"><g class="djs-visual"><defs><marker id="marker-16rmxt0pcyr31bopynd85lmeb" viewBox="0 0 20 20" refX="11" refY="10" markerWidth="10" markerHeight="10" orient="auto"><path d="M 1 5 L 11 10 L 1 15" style="fill: none; stroke-linecap: round; stroke-linejoin: round; stroke: rgb(34, 36, 42); stroke-width: 1.5px; stroke-dasharray: 10000px, 1px;"/></marker></defs><path style="fill: none; stroke-linecap: round; stroke-linejoin: round; stroke: rgb(34, 36, 42); stroke-width: 2px; marker-end: url('#marker-16rmxt0pcyr31bopynd85lmeb'); stroke-dasharray: 0px, 5px;" data-corner-radius="5" d="M649,280L648,225"/></g><path d="M649,280L648,225" style="fill: none; stroke-opacity: 0; stroke: white; stroke-width: 15px;" class="djs-hit djs-hit-stroke"/><rect x="643" y="220" rx="4" width="11" height="65" style="fill: none;" class="djs-outline"/></g></g><g class="djs-group"><g class="djs-element djs-shape" data-element-id="Event_0qcoi3h_label" transform="matrix(1, 0, 0, 1, 761, 345)" style="display: block;"><g class="djs-visual"><text style="font-family: Arial, sans-serif; font-size: 11px; font-weight: normal; fill: rgb(32, 80, 34);" lineHeight="1.2" class="djs-label"><tspan x="17.116666793823242" y="9.899999999999999">Request </tspan><tspan x="0" y="23.099999999999998">approved, docs </tspan><tspan x="18.33333396911621" y="36.3">archived</tspan></text></g><rect style="fill: none; stroke-opacity: 0; stroke: white; stroke-width: 15px;" class="djs-hit djs-hit-all" x="0" y="0" width="79" height="40"/><rect x="-5" y="-5" rx="4" width="89" height="50" style="fill: none;" class="djs-outline"/></g></g><g class="djs-group"><g class="djs-element djs-shape" data-element-id="Gateway_0p20e8y_label" transform="matrix(1, 0, 0, 1, 619, 502)" style="display: block;"><g class="djs-visual"><text style="font-family: Arial, sans-serif; font-size: 11px; font-weight: normal; fill: rgb(107, 60, 0);" lineHeight="1.2" class="djs-label"><tspan x="0" y="9.899999999999999">Approve the </tspan><tspan x="12.833332061767578" y="23.099999999999998">request</tspan></text></g><rect style="fill: none; stroke-opacity: 0; stroke: white; stroke-width: 15px;" class="djs-hit djs-hit-all" x="0" y="0" width="63" height="27"/><rect x="-5" y="-5" rx="4" width="73" height="37" style="fill: none;" class="djs-outline"/></g></g><g class="djs-group"><g class="djs-element djs-shape" data-element-id="Event_1tz5o57_label" transform="matrix(1, 0, 0, 1, 757, 495)" style="display: block;"><g class="djs-visual"><text style="font-family: Arial, sans-serif; font-size: 11px; font-weight: normal; fill: rgb(131, 19, 17);" lineHeight="1.2" class="djs-label"><tspan x="0" y="9.899999999999999">Request rejected,</tspan><tspan x="7.9416656494140625" y="23.099999999999998">docs disposed</tspan></text></g><rect style="fill: none; stroke-opacity: 0; stroke: white; stroke-width: 15px;" class="djs-hit djs-hit-all" x="0" y="0" width="87" height="27"/><rect x="-5" y="-5" rx="4" width="97" height="37" style="fill: none;" class="djs-outline"/></g></g><g class="djs-group"><g class="djs-element djs-shape" data-element-id="Flow_0ynzzem_label" transform="matrix(1, 0, 0, 1, 707, 452)" style="display: block;"><g class="djs-visual"><text style="font-family: Arial, sans-serif; font-size: 11px; font-weight: normal; fill: rgb(34, 36, 42);" lineHeight="1.2" class="djs-label"><tspan x="0" y="9.899999999999999">Rejected</tspan></text></g><rect style="fill: none; stroke-opacity: 0; stroke: white; stroke-width: 15px;" class="djs-hit djs-hit-all" x="0" y="0" width="44" height="14"/><rect x="-5" y="-5" rx="4" width="54" height="24" style="fill: none;" class="djs-outline"/></g></g><g class="djs-group"><g class="djs-element djs-shape" data-element-id="label_24" transform="matrix(1, 0, 0, 1, 680, 195)" style="display: block;"><g class="djs-visual"><text style="font-family: Arial, sans-serif; font-size: 11px; font-weight: normal; fill: rgb(107, 60, 0);" lineHeight="1.2" class="djs-label"><tspan x="0" y="9.899999999999999">Leave form </tspan><tspan x="10.691665649414062" y="23.099999999999998">request</tspan></text></g><rect style="fill: none; stroke-opacity: 0; stroke: white; stroke-width: 15px;" class="djs-hit djs-hit-all" x="0" y="0" width="59" height="27"/><rect x="-5" y="-5" rx="4" width="69" height="37" style="fill: none;" class="djs-outline"/></g></g><g class="djs-group"><g class="djs-element djs-shape" data-element-id="Flow_0hm9oq5_label" transform="matrix(1, 0, 0, 1, 656, 413)" style="display: block;"><g class="djs-visual"><text style="font-family: Arial, sans-serif; font-size: 11px; font-weight: normal; fill: rgb(34, 36, 42);" lineHeight="1.2" class="djs-label"><tspan x="0" y="9.899999999999999">Approved</tspan></text></g><rect style="fill: none; stroke-opacity: 0; stroke: white; stroke-width: 15px;" class="djs-hit djs-hit-all" x="0" y="0" width="48" height="14"/><rect x="-5" y="-5" rx="4" width="58" height="24" style="fill: none;" class="djs-outline"/></g></g></svg>